<?xml version="1.0" encoding="UTF-8"?>
<svg width="212px" height="130px" viewBox="0 0 212 130" version="1.1" xmlns="http://www.w3.org/2000/svg" xmlns:xlink="http://www.w3.org/1999/xlink">
    <title>rnk-logo</title>
    <g id="logo" stroke="none" stroke-width="1" fill="none" fill-rule="evenodd">
        <g id="rnk-logo">
            <path d="M7.49175258,66.6618557 C10.2927835,65.643299 19.1515464,61.7969072 29.7525773,45.7948454 C44.2670103,23.9092784 32.928866,0.227835052 32.928866,0.227835052 C32.928866,0.227835052 47.0814433,20.8 38.0082474,42.4845361 C36.7708972,45.4242018 35.3102704,48.2648073 33.6391753,50.9814433 C42.2701031,67.3051546 57.3876289,58.0175258 68.028866,81.1092784 C77.0082474,100.569072 58.4329897,117.52268 58.4329897,117.52268 C58.4329897,117.52268 73.5639175,100.515464 58.7010309,80.7608247 C48.2474227,66.9030928 32.928866,71.714433 32.8216495,60.1216495 L33.1164948,51.8391753 C30.2507763,56.3169085 26.8680628,60.4418398 23.0381443,64.128866 C30.3020619,77.2494845 51.6381443,68.9134021 59.7463918,94.3237113 C62.5206186,102.981443 60.1484536,118.045361 44.4948454,126.582474 C38.5221644,129.572224 31.7399758,130.541108 25.1690722,129.343299 C25.1690722,129.343299 34.7649485,131.340206 45.0309278,122.937113 C52.7610105,116.228581 55.068772,105.188601 50.6731959,95.9453608 C43.6371134,79.728866 24.1237113,83.8835052 22.6628866,74.2608247 L22.7835052,64.3298969 C15.7206186,71.0309278 10.7216495,74.1938144 6.39278351,75.6680412 C9.95773196,81.5247423 24.4587629,84.7948454 34.0814433,87.9309278 C42.2267722,90.38444 47.9167041,97.7377484 48.2474227,106.238144 C48.2046775,110.096859 47.1162144,113.871742 45.0979381,117.160825 C41.3721649,123.446392 28.6536082,130.562887 15.8010309,128.163918 C9.69646089,126.898607 4.53752929,122.845869 1.8628866,117.214433 C-2.62680412,107.83299 2.05051546,96.2134021 7.89381443,93.0907216 C0.268041237,102.673196 5.22680412,114.145361 18.6556701,117.683505 C31.4948454,121.074227 44.4814433,110.473196 44.5484536,109.226804 C44.7494845,105.903093 38.9463918,100.904124 28.3185567,97.5 C28.3185567,97.5 20.6123711,95.1948454 16.8597938,94.1226804 C-0.964948454,89.0835052 1.74226804,81.1494845 1.74226804,81.1494845 C3.14590435,76.1321817 5.07298467,71.2762987 7.49175258,66.6618557" id="Path" fill="#C4161C" fill-rule="nonzero"></path>
            <polygon id="Path" fill="#C4161C" fill-rule="nonzero" points="22.2474227 97.7680412 31.7896907 107.082474 22.2474227 116.396907 12.7051546 107.082474"></polygon>
            <path d="M138.041237,61.6494845 C135.207862,62.8147808 132.610213,64.4859955 130.375258,66.5814433 C128.166325,68.6659297 126.398093,71.1724438 125.175258,73.9525773 C123.900069,76.829016 123.260096,79.946596 123.298969,83.0927835 L123.298969,105.219588 L131.206186,105.219588 L131.206186,83.0927835 C131.205749,81.004266 131.663225,78.9410501 132.546392,77.0484536 C133.390026,75.1896115 134.571576,73.5036309 136.030928,72.0762887 C137.511546,70.6348081 139.26602,69.5046539 141.190722,68.7525773 C143.196126,67.9429623 145.340467,67.5332156 147.503093,67.5463918 C149.696591,67.5282181 151.872588,67.9379246 153.909278,68.7525773 C157.763949,70.2625723 160.856359,73.2488469 162.5,77.0484536 C163.341858,78.9517234 163.771204,81.0116705 163.759794,83.0927835 L163.759794,105.219588 L171.801433,105.219588 L171.801433,83.0927835 C171.819941,79.9716991 171.171062,76.8826705 169.897938,74.0329897 C168.670377,71.2555294 166.902768,68.7498971 164.697938,66.6618557 C162.431344,64.5217218 159.786331,62.8220054 156.897938,61.6494845 C153.919665,60.4356465 150.732612,59.8164477 147.516495,59.8268041 C144.267823,59.7930061 141.045527,60.4128536 138.041237,61.6494845 M103.048454,83.0927835 C103.024667,81.0017768 103.483279,78.9334364 104.38866,77.0484536 C105.331251,75.1505308 106.643532,73.4600572 108.248454,72.0762887 C109.932501,70.6288805 111.86756,69.5023675 113.957732,68.7525773 C116.190036,67.9373774 118.550373,67.5288574 120.926804,67.5463918 L120.926804,59.9072165 C117.506511,59.8665097 114.108056,60.4571502 110.902062,61.6494845 C107.892852,62.7934428 105.111056,64.4634279 102.686598,66.5814433 C100.344111,68.6317922 98.4466589,71.140443 97.1113402,73.9525773 C95.7354168,76.8015666 95.0337954,79.9290555 95.0608247,83.0927835 L95.0608247,105.219588 L103.102062,105.219588 L103.048454,83.0927835 Z" id="Shape" fill="#000000" fill-rule="nonzero"></path>
            <path d="M138.041237,61.6494845 C135.207862,62.8147808 132.610213,64.4859955 130.375258,66.5814433 C128.166325,68.6659297 126.398093,71.1724438 125.175258,73.9525773 C123.900069,76.829016 123.260096,79.946596 123.298969,83.0927835 L123.298969,105.219588 L131.206186,105.219588 L131.206186,83.0927835 C131.205749,81.004266 131.663225,78.9410501 132.546392,77.0484536 C133.390026,75.1896115 134.571576,73.5036309 136.030928,72.0762887 C137.511546,70.6348081 139.26602,69.5046539 141.190722,68.7525773 C143.196126,67.9429623 145.340467,67.5332156 147.503093,67.5463918 C149.696591,67.5282181 151.872588,67.9379246 153.909278,68.7525773 C157.763949,70.2625723 160.856359,73.2488469 162.5,77.0484536 C163.341858,78.9517234 163.771204,81.0116705 163.759794,83.0927835 L163.759794,105.219588 L171.801433,105.219588 L171.801433,83.0927835 C171.819941,79.9716991 171.171062,76.8826705 169.897938,74.0329897 C168.670377,71.2555294 166.902768,68.7498971 164.697938,66.6618557 C162.431344,64.5217218 159.786331,62.8220054 156.897938,61.6494845 C153.919665,60.4356465 150.732612,59.8164477 147.516495,59.8268041 C144.267823,59.7930061 141.045527,60.4128536 138.041237,61.6494845 Z M103.048454,83.0927835 C103.024667,81.0017768 103.483279,78.9334364 104.38866,77.0484536 C105.331251,75.1505308 106.643532,73.4600572 108.248454,72.0762887 C109.932501,70.6288805 111.86756,69.5023675 113.957732,68.7525773 C116.190036,67.9373774 118.550373,67.5288574 120.926804,67.5463918 L120.926804,59.9072165 C117.506511,59.8665097 114.108056,60.4571502 110.902062,61.6494845 C107.892852,62.7934428 105.111056,64.4634279 102.686598,66.5814433 C100.344111,68.6317922 98.4466589,71.140443 97.1113402,73.9525773 C95.7354168,76.8015666 95.0337954,79.9290555 95.0608247,83.0927835 L95.0608247,105.219588 L103.102062,105.219588 L103.048454,83.0927835 Z" id="Shape" stroke="#000000"></path>
            <polygon id="Path" fill="#000000" fill-rule="nonzero" points="180.418557 86.443299 199.168041 104.723711 210.07732 104.723711 187.334021 82.5298969 210.07732 60.3360825 199.168041 60.3360825 180.418557 78.6298969"></polygon>
            <polygon id="Path" stroke="#000000" points="180.418557 86.443299 199.168041 104.723711 210.07732 104.723711 187.334021 82.5298969 210.07732 60.3360825 199.168041 60.3360825 180.418557 78.6298969"></polygon>
            <path d="M202.250515,114.882474 L205.614433,114.882474 L205.614433,126.126804 L207.048454,126.126804 L207.048454,114.882474 L210.412371,114.882474 L210.412371,113.636082 L202.250515,113.636082 L202.250515,114.882474 Z M193.378351,121.275258 L189.947423,121.275258 L191.662887,114.574227 L191.662887,114.574227 L193.378351,121.275258 Z M187.052577,126.126804 L188.647423,126.126804 L189.598969,122.521649 L193.713402,122.521649 L194.731959,126.126804 L196.326804,126.126804 L192.668041,113.636082 L190.764948,113.636082 L187.052577,126.126804 Z M173.730928,113.636082 L172.136082,113.636082 L176.036082,121.275258 L176.036082,126.126804 L177.483505,126.126804 L177.483505,121.275258 L181.410309,113.636082 L179.815464,113.636082 L176.773196,119.894845 L173.730928,113.636082 Z M163.692784,111.237113 L162.352577,111.237113 L162.352577,112.898969 L163.692784,112.898969 L163.692784,111.237113 Z M163.692784,113.649485 L162.258763,113.649485 L162.258763,126.140206 L163.692784,126.140206 L163.692784,113.649485 Z M146.350515,120.618557 L148.856701,120.618557 C150.585567,120.618557 151.081443,121.663918 151.081443,122.937113 C151.065458,124.013244 151.219236,125.085167 151.537113,126.113402 L153.212371,126.113402 L153.212371,125.845361 C152.863918,125.845361 152.770103,125.282474 152.716495,125.054639 C152.576303,124.135191 152.48237,123.209283 152.435052,122.280412 C152.260825,120.631959 151.791753,120.082474 150.129897,119.948454 L150.129897,119.948454 C151.536511,119.849753 152.626139,118.67811 152.62268,117.268041 C152.716495,114.386598 150.974227,113.703093 148.253608,113.703093 L144.903093,113.703093 L144.903093,126.193814 L146.350515,126.193814 L146.350515,120.618557 Z M146.350515,114.869072 L148.374227,114.869072 C149.352577,114.869072 151.054639,114.869072 151.135052,117.06701 C151.174694,117.728596 150.913683,118.372746 150.424686,118.820126 C149.935689,119.267506 149.270924,119.470343 148.615464,119.372165 L146.350515,119.372165 L146.350515,114.869072 Z M130.84433,127.869072 C131.183556,127.755661 131.550465,127.755661 131.889691,127.869072 C132.372165,128.096907 132.439175,128.579381 132.278351,128.76701 C132.069344,129.054531 131.719189,129.203862 131.36701,129.15567 C130.981253,129.136084 130.601149,129.054634 130.241237,128.914433 L129.946392,129.571134 C130.407922,129.746876 130.8897,129.863943 131.380412,129.919588 C132.439175,129.919588 133.672165,129.61134 133.672165,128.391753 C133.672165,127.172165 132.224742,127.051546 131.675258,127.225773 L132.251546,126.475258 C133.232843,126.491533 134.186206,126.148322 134.931959,125.510309 C135.671291,124.788062 136.062222,123.781414 136.004124,122.749485 C136.004124,121.074227 135.535052,120.256701 133.095876,119.385567 L131.031959,118.635052 C130.271922,118.428128 129.758701,117.719661 129.798969,116.93299 C129.798969,115.968041 130.026804,114.694845 132.117526,114.694845 C132.721542,114.641529 133.315497,114.875195 133.72128,115.325771 C134.127062,115.776348 134.297485,116.39144 134.181443,116.986598 L135.615464,116.986598 C135.762887,114.627835 134.275258,113.448454 131.929897,113.448454 C130.982872,113.372578 130.04792,113.700698 129.356012,114.351756 C128.664103,115.002814 128.279763,115.916093 128.297938,116.865979 C128.158234,118.044032 128.78305,119.180552 129.852577,119.693814 C130.52268,120.042268 131.68866,120.390722 132.398969,120.658763 C133.739175,121.141237 134.516495,121.181443 134.516495,123.057732 C134.516495,124.531959 133.484536,125.242268 132.037113,125.242268 C129.852577,125.242268 129.517526,124.089691 129.571134,122.226804 L128.110309,122.226804 C128.064442,122.996123 128.15519,123.767486 128.378351,124.505155 C128.840952,125.537168 129.803964,126.256893 130.924742,126.408247 L131.420619,126.408247 L130.549485,127.574227 L130.84433,127.869072 Z M119.814433,126.126804 L119.814433,124.880412 L114.721649,124.880412 L114.721649,120.256701 L119.465979,120.256701 L119.465979,119.010309 L114.721649,119.010309 L114.721649,114.882474 L119.774227,114.882474 L119.774227,113.636082 L113.274227,113.636082 L113.274227,126.126804 L119.814433,126.126804 Z M102.659794,123.821649 C102.659794,124.290722 102.659794,124.773196 102.659794,125.161856 L102.659794,125.161856 C102.472165,124.572165 102.364948,124.170103 102.204124,123.821649 L98.5185567,113.595876 L96.1731959,113.595876 L96.1731959,126.086598 L97.6206186,126.086598 L97.6206186,116.169072 C97.6206186,115.512371 97.6206186,114.828866 97.6206186,114.252577 L97.6206186,114.252577 C97.7162617,114.892981 97.8779483,115.521762 98.1030928,116.128866 L101.748454,126.126804 L104.093814,126.126804 L104.093814,113.636082 L102.659794,113.636082 L102.659794,123.821649 Z" id="Shape" fill="#000000" fill-rule="nonzero"></path>
        </g>
    </g>
</svg>